<svg width="60" height="60" viewBox="0 0 60 60" fill="none" xmlns="http://www.w3.org/2000/svg">
<rect width="60" height="60" rx="18" fill="#3C36A0"/>
<path d="M24.6974 28.9395C26.3969 27.24 29.3609 27.24 31.0604 28.9395L32.1209 30L34.2419 27.879L33.1814 26.8185C31.7669 25.4025 29.8829 24.621 27.8789 24.621C25.8749 24.621 23.9909 25.4025 22.5764 26.8185L19.3934 30C17.9898 31.4081 17.2017 33.3152 17.2017 35.3033C17.2017 37.2914 17.9898 39.1985 19.3934 40.6065C20.0892 41.3033 20.9158 41.8558 21.8258 42.2321C22.7358 42.6085 23.7111 42.8013 24.6959 42.7995C25.6808 42.8016 26.6565 42.6089 27.5668 42.2325C28.477 41.8562 29.3039 41.3036 29.9999 40.6065L31.0604 39.546L28.9394 37.425L27.8789 38.4855C27.0336 39.327 25.8894 39.7995 24.6966 39.7995C23.5038 39.7995 22.3596 39.327 21.5144 38.4855C20.6721 37.6406 20.1992 36.4963 20.1992 35.3033C20.1992 34.1103 20.6721 32.9659 21.5144 32.121L24.6974 28.9395Z" fill="white"/>
<path opacity="0.4" d="M29.9998 19.3936L28.9393 20.4541L31.0603 22.5751L32.1208 21.5146C32.9661 20.6731 34.1103 20.2007 35.3031 20.2007C36.4958 20.2007 37.64 20.6731 38.4853 21.5146C39.3276 22.3595 39.8005 23.5039 39.8005 24.6969C39.8005 25.8899 39.3276 27.0342 38.4853 27.8791L35.3023 31.0606C33.6028 32.7601 30.6388 32.7601 28.9393 31.0606L27.8788 30.0001L25.7578 32.1211L26.8183 33.1816C28.2328 34.5976 30.1168 35.3791 32.1208 35.3791C34.1248 35.3791 36.0088 34.5976 37.4233 33.1816L40.6063 30.0001C42.0099 28.592 42.798 26.685 42.798 24.6969C42.798 22.7087 42.0099 20.8017 40.6063 19.3936C39.1986 17.9893 37.2914 17.2007 35.3031 17.2007C33.3147 17.2007 31.4075 17.9893 29.9998 19.3936Z" fill="white"/>
</svg>
