<svg width="60" height="60" viewBox="0 0 60 60" fill="none" xmlns="http://www.w3.org/2000/svg">
<rect width="60" height="60" rx="18" fill="#3C36A0"/>
<rect opacity="0.4" x="22" y="22" width="15" height="16" fill="white"/>
<path d="M30.0001 33.6C30.9549 33.6 31.8705 33.2207 32.5457 32.5456C33.2208 31.8704 33.6001 30.9548 33.6001 30C33.6001 29.0452 33.2208 28.1295 32.5457 27.4544C31.8705 26.7793 30.9549 26.4 30.0001 26.4C29.0453 26.4 28.1296 26.7793 27.4545 27.4544C26.7794 28.1295 26.4001 29.0452 26.4001 30C26.4001 30.9548 26.7794 31.8704 27.4545 32.5456C28.1296 33.2207 29.0453 33.6 30.0001 33.6ZM26.4001 16.5C26.4001 16.2613 26.3053 16.0324 26.1365 15.8636C25.9677 15.6948 25.7388 15.6 25.5001 15.6C25.2614 15.6 25.0325 15.6948 24.8637 15.8636C24.6949 16.0324 24.6001 16.2613 24.6001 16.5V19.2H23.7001C22.5066 19.2 21.362 19.6741 20.5181 20.518C19.6742 21.3619 19.2001 22.5065 19.2001 23.7V24.6H16.5001C16.2614 24.6 16.0325 24.6948 15.8637 24.8636C15.6949 25.0324 15.6001 25.2613 15.6001 25.5C15.6001 25.7387 15.6949 25.9676 15.8637 26.1364C16.0325 26.3052 16.2614 26.4 16.5001 26.4H19.2001V29.1H16.5001C16.2614 29.1 16.0325 29.1948 15.8637 29.3636C15.6949 29.5324 15.6001 29.7613 15.6001 30C15.6001 30.2387 15.6949 30.4676 15.8637 30.6364C16.0325 30.8052 16.2614 30.9 16.5001 30.9H19.2001V33.6H16.5001C16.2614 33.6 16.0325 33.6948 15.8637 33.8636C15.6949 34.0324 15.6001 34.2613 15.6001 34.5C15.6001 34.7387 15.6949 34.9676 15.8637 35.1364C16.0325 35.3052 16.2614 35.4 16.5001 35.4H19.2001V36.3C19.2001 37.4934 19.6742 38.638 20.5181 39.482C21.362 40.3259 22.5066 40.8 23.7001 40.8H24.6001V43.5C24.6001 43.7387 24.6949 43.9676 24.8637 44.1364C25.0325 44.3052 25.2614 44.4 25.5001 44.4C25.7388 44.4 25.9677 44.3052 26.1365 44.1364C26.3053 43.9676 26.4001 43.7387 26.4001 43.5V40.8H29.1001V43.5C29.1001 43.7387 29.1949 43.9676 29.3637 44.1364C29.5325 44.3052 29.7614 44.4 30.0001 44.4C30.2388 44.4 30.4677 44.3052 30.6365 44.1364C30.8053 43.9676 30.9001 43.7387 30.9001 43.5V40.8H33.6001V43.5C33.6001 43.7387 33.6949 43.9676 33.8637 44.1364C34.0325 44.3052 34.2614 44.4 34.5001 44.4C34.7388 44.4 34.9677 44.3052 35.1365 44.1364C35.3053 43.9676 35.4001 43.7387 35.4001 43.5V40.8H36.3001C37.4936 40.8 38.6382 40.3259 39.4821 39.482C40.326 38.638 40.8001 37.4934 40.8001 36.3V35.4H43.5001C43.7388 35.4 43.9677 35.3052 44.1365 35.1364C44.3053 34.9676 44.4001 34.7387 44.4001 34.5C44.4001 34.2613 44.3053 34.0324 44.1365 33.8636C43.9677 33.6948 43.7388 33.6 43.5001 33.6H40.8001V30.9H43.5001C43.7388 30.9 43.9677 30.8052 44.1365 30.6364C44.3053 30.4676 44.4001 30.2387 44.4001 30C44.4001 29.7613 44.3053 29.5324 44.1365 29.3636C43.9677 29.1948 43.7388 29.1 43.5001 29.1H40.8001V26.4H43.5001C43.7388 26.4 43.9677 26.3052 44.1365 26.1364C44.3053 25.9676 44.4001 25.7387 44.4001 25.5C44.4001 25.2613 44.3053 25.0324 44.1365 24.8636C43.9677 24.6948 43.7388 24.6 43.5001 24.6H40.8001V23.7C40.8001 22.5065 40.326 21.3619 39.4821 20.518C38.6382 19.6741 37.4936 19.2 36.3001 19.2H35.4001V16.5C35.4001 16.2613 35.3053 16.0324 35.1365 15.8636C34.9677 15.6948 34.7388 15.6 34.5001 15.6C34.2614 15.6 34.0325 15.6948 33.8637 15.8636C33.6949 16.0324 33.6001 16.2613 33.6001 16.5V19.2H30.9001V16.5C30.9001 16.2613 30.8053 16.0324 30.6365 15.8636C30.4677 15.6948 30.2388 15.6 30.0001 15.6C29.7614 15.6 29.5325 15.6948 29.3637 15.8636C29.1949 16.0324 29.1001 16.2613 29.1001 16.5V19.2H26.4001V16.5ZM35.4001 30C35.4001 31.4321 34.8312 32.8057 33.8185 33.8184C32.8058 34.831 31.4323 35.4 30.0001 35.4C28.5679 35.4 27.1944 34.831 26.1817 33.8184C25.169 32.8057 24.6001 31.4321 24.6001 30C24.6001 28.5678 25.169 27.1943 26.1817 26.1816C27.1944 25.1689 28.5679 24.6 30.0001 24.6C31.4323 24.6 32.8058 25.1689 33.8185 26.1816C34.8312 27.1943 35.4001 28.5678 35.4001 30Z" fill="white"/>
<rect x="26" y="26" width="8" height="8" rx="4" fill="#978EFD"/>
</svg>
