<svg width="60" height="60" viewBox="0 0 60 60" fill="none" xmlns="http://www.w3.org/2000/svg">
<rect width="60" height="60" rx="18" fill="#3C36A0"/>
<path d="M45.6588 18.9335L40.9057 41.3491C40.5468 42.9309 39.612 43.3246 38.2833 42.5799L31.0406 37.2429L27.5463 40.6044C27.1593 40.9914 26.8365 41.3143 26.0906 41.3143L26.6115 33.9388L40.0338 21.8101C40.6177 21.2904 39.9067 21.0013 39.1271 21.5221L22.5333 31.9711L15.3896 29.7346C13.836 29.2498 13.8078 28.181 15.7136 27.4351L43.6552 16.67C44.949 16.1851 46.0807 16.958 45.6588 18.9346V18.9335Z" fill="white"/>
<g opacity="0.4">
<path d="M44.6588 21.9335L39.9057 44.3491C39.5468 45.9309 38.612 46.3246 37.2833 45.5799L30.0406 40.2429L26.5463 43.6044C26.1593 43.9914 25.8365 44.3143 25.0906 44.3143L25.6115 36.9388L39.0338 24.8101C39.6177 24.2904 38.9067 24.0013 38.1271 24.5221L21.5333 34.9711L14.3896 32.7346C12.836 32.2498 12.8078 31.181 14.7136 30.4351L42.6552 19.67C43.949 19.1851 45.0807 19.958 44.6588 21.9346V21.9335Z" fill="white"/>
</g>
</svg>
