<svg width="60" height="60" viewBox="0 0 60 60" fill="none" xmlns="http://www.w3.org/2000/svg">
<rect width="60" height="60" rx="18" fill="#3C36A0"/>
<rect opacity="0.4" x="28.1113" y="25.2778" width="12.2778" height="13.2222" fill="white"/>
<path d="M41.3335 21.5H30.0002L28.0027 19.5025C27.4643 18.9641 26.7418 18.6666 25.991 18.6666H18.6668C17.0943 18.6666 15.8477 19.9275 15.8477 21.5L15.8335 38.5C15.8335 40.0725 17.0943 41.3333 18.6668 41.3333H41.3335C42.8918 41.3333 44.1668 40.0583 44.1668 38.5V24.3333C44.1668 22.775 42.8918 21.5 41.3335 21.5ZM38.5002 32.8333H35.6668V35.6666C35.6668 36.4458 35.0293 37.0833 34.2502 37.0833C33.471 37.0833 32.8335 36.4458 32.8335 35.6666V32.8333H30.0002C29.221 32.8333 28.5835 32.1958 28.5835 31.4166C28.5835 30.6375 29.221 30 30.0002 30H32.8335V27.1666C32.8335 26.3875 33.471 25.75 34.2502 25.75C35.0293 25.75 35.6668 26.3875 35.6668 27.1666V30H38.5002C39.2793 30 39.9168 30.6375 39.9168 31.4166C39.9168 32.1958 39.2793 32.8333 38.5002 32.8333Z" fill="white"/>
</svg>
