<svg width="60" height="60" viewBox="0 0 60 60" fill="none" xmlns="http://www.w3.org/2000/svg">
<rect width="60" height="60" rx="18" fill="#3C36A0"/>
<path d="M17.3949 18.2929C17.3949 18.0542 17.4897 17.8253 17.6585 17.6565C17.8273 17.4878 18.0562 17.3929 18.2949 17.3929H19.0833C20.3919 17.3929 21.1443 18.2443 21.5799 19.0939C21.8769 19.6753 22.0911 20.3845 22.2693 21.0001H40.8003C41.0784 21.0002 41.3527 21.0648 41.6017 21.1887C41.8507 21.3126 42.0676 21.4925 42.2354 21.7144C42.4032 21.9362 42.5172 22.1939 42.5687 22.4672C42.6201 22.7406 42.6075 23.0221 42.5319 23.2897L39.8391 32.7847C39.6249 33.5381 39.1709 34.201 38.5459 34.673C37.9209 35.145 37.159 35.4003 36.3759 35.4002H27.2337C26.444 35.4004 25.6761 35.141 25.0483 34.6619C24.4206 34.1828 23.9678 33.5105 23.7597 32.7488L22.6041 28.5097C22.5974 28.4907 22.5914 28.4715 22.5861 28.4521L20.7303 22.1575L20.5503 21.5509C20.3703 20.9281 20.2119 20.3773 19.9743 19.9147C19.6881 19.3567 19.4253 19.1947 19.0815 19.1947H18.2931C18.0544 19.1947 17.8255 19.0999 17.6567 18.9311C17.4879 18.7624 17.3931 18.5334 17.3931 18.2947L17.3949 18.2929Z" fill="white"/>
<path opacity="0.4" d="M27.3001 42.6001C28.0162 42.6001 28.7029 42.3156 29.2093 41.8093C29.7156 41.3029 30.0001 40.6162 30.0001 39.9001C30.0001 39.184 29.7156 38.4972 29.2093 37.9909C28.7029 37.4845 28.0162 37.2001 27.3001 37.2001C26.584 37.2001 25.8973 37.4845 25.3909 37.9909C24.8846 38.4972 24.6001 39.184 24.6001 39.9001C24.6001 40.6162 24.8846 41.3029 25.3909 41.8093C25.8973 42.3156 26.584 42.6001 27.3001 42.6001Z" fill="white"/>
<path opacity="0.4" d="M36.3001 42.6001C37.0162 42.6001 37.7029 42.3156 38.2093 41.8093C38.7156 41.3029 39.0001 40.6162 39.0001 39.9001C39.0001 39.184 38.7156 38.4972 38.2093 37.9909C37.7029 37.4845 37.0162 37.2001 36.3001 37.2001C35.584 37.2001 34.8973 37.4845 34.3909 37.9909C33.8846 38.4972 33.6001 39.184 33.6001 39.9001C33.6001 40.6162 33.8846 41.3029 34.3909 41.8093C34.8973 42.3156 35.584 42.6001 36.3001 42.6001Z" fill="white"/>
</svg>
